<svg data-v-423bf9ae="" xmlns="http://www.w3.org/2000/svg" viewBox="0 0 602.175600569147 60" class="font"><!----><!----><!----><g data-v-423bf9ae="" id="36836533-1dda-4b3d-aad4-3d3a4b049276" fill="white" transform="matrix(5.725191089769513,0,0,5.725191089769513,-1.3167870955117564,-9.446565367279312)"><path d="M2.49 2.92L0.23 2.92L0.23 1.93L5.79 1.93L5.79 2.92L3.52 2.92L3.52 12.07L2.49 12.07L2.49 2.92ZM9.34 4.22L9.34 4.22L9.34 4.22Q11.07 4.22 12.21 5.47L12.21 5.47L12.21 5.47Q13.26 6.61 13.26 8.18L13.26 8.18L13.26 8.18Q13.28 12.07 13.26 12.13L13.26 12.13L13.26 12.13Q12.61 12.13 12.24 12.13L12.24 12.13L12.24 12.13Q12.24 12.08 12.24 10.42L12.24 10.42L12.24 10.42Q11.44 11.92 9.34 12.09L9.34 12.09L9.34 12.09Q7.62 12.09 6.52 10.92L6.52 10.92L6.52 10.92Q5.43 9.75 5.43 8.18L5.43 8.18L5.43 8.18Q5.43 6.62 6.47 5.48L6.47 5.48L6.47 5.48Q7.61 4.22 9.34 4.22ZM9.34 5.16L9.34 5.16L9.34 5.16Q8.14 5.16 7.28 6.05L7.28 6.05L7.28 6.05Q6.42 6.94 6.42 8.20L6.42 8.20L6.42 8.20Q6.42 9.01 6.86 9.76L6.86 9.76L6.86 9.76Q7.30 10.51 8.35 11.03L8.35 11.03L8.35 11.03Q10.99 11.62 12.11 8.63L12.11 8.63L12.11 8.63Q12.17 7.68 11.90 6.80L11.90 6.80L11.90 6.80Q11.71 6.41 11.38 6.05L11.38 6.05L11.38 6.05Q10.53 5.16 9.34 5.16ZM14.98 12.09L14.98 1.69L15.96 1.69L15.96 12.09L14.98 12.09ZM17.94 12.09L17.94 1.69L18.91 1.69L18.91 7.61L22.37 4.59L23.80 4.59L20.66 7.44L24.04 12.09L22.67 12.09L19.71 8.05L18.91 8.72L18.91 12.09L17.94 12.09ZM31.49 11.03L31.49 11.03L31.49 11.03Q30.78 11.41 30.09 11.09L30.09 11.09L30.09 11.09Q29.26 10.45 29.30 9.28L29.30 9.28L29.30 6.10L31.08 6.10L31.08 5.28L29.29 5.28L29.29 1.65L28.32 1.65L28.32 9.44L28.32 9.44Q28.31 10.26 28.70 10.94L28.70 10.94L28.70 10.94Q29.34 12.03 30.45 12.09L30.45 12.09L30.45 12.09Q31.04 12.11 31.79 11.83L31.79 11.83L31.79 11.83Q31.67 11.54 31.49 11.03ZM36.87 4.22L36.87 4.22L36.87 4.22Q38.60 4.22 39.74 5.47L39.74 5.47L39.74 5.47Q40.77 6.62 40.77 8.18L40.77 8.18L40.77 8.18Q40.77 9.75 39.68 10.92L39.68 10.92L39.68 10.92Q38.58 12.09 36.87 12.09L36.87 12.09L36.87 12.09Q35.14 12.09 34.05 10.92L34.05 10.92L34.05 10.92Q32.96 9.75 32.96 8.18L32.96 8.18L32.96 8.18Q32.96 6.62 34.00 5.48L34.00 5.48L34.00 5.48Q35.14 4.22 36.87 4.22ZM36.87 5.16L36.87 5.16L36.87 5.16Q35.67 5.16 34.81 6.05L34.81 6.05L34.81 6.05Q33.95 6.94 33.95 8.20L33.95 8.20L33.95 8.20Q33.95 9.01 34.34 9.72L34.34 9.72L34.34 9.72Q34.73 10.42 35.40 10.80L35.40 10.80L35.40 10.80Q36.07 11.18 36.87 11.18L36.87 11.18L36.87 11.18Q37.67 11.18 38.34 10.80L38.34 10.80L38.34 10.80Q39.01 10.42 39.40 9.72L39.40 9.72L39.40 9.72Q39.79 9.01 39.79 8.20L39.79 8.20L39.79 8.20Q39.79 6.94 38.92 6.05L38.92 6.05L38.92 6.05Q38.06 5.16 36.87 5.16ZM49.85 4.22L49.85 4.22L49.85 4.22Q51.58 4.22 52.72 5.47L52.72 5.47L52.72 5.47Q53.77 6.61 53.77 8.18L53.77 8.18L53.77 8.18Q53.79 12.07 53.77 12.13L53.77 12.13L53.77 12.13Q53.12 12.13 52.75 12.13L52.75 12.13L52.75 12.13Q52.75 12.08 52.75 10.42L52.75 10.42L52.75 10.42Q51.95 11.92 49.85 12.09L49.85 12.09L49.85 12.09Q48.13 12.09 47.03 10.92L47.03 10.92L47.03 10.92Q45.94 9.75 45.94 8.18L45.94 8.18L45.94 8.18Q45.94 6.62 46.98 5.48L46.98 5.48L46.98 5.48Q48.12 4.22 49.85 4.22ZM49.85 5.16L49.85 5.16L49.85 5.16Q48.65 5.16 47.79 6.05L47.79 6.05L47.79 6.05Q46.93 6.94 46.93 8.20L46.93 8.20L46.93 8.20Q46.93 9.01 47.37 9.76L47.37 9.76L47.37 9.76Q47.81 10.51 48.86 11.03L48.86 11.03L48.86 11.03Q51.50 11.62 52.62 8.63L52.62 8.63L52.62 8.63Q52.68 7.68 52.41 6.80L52.41 6.80L52.41 6.80Q52.22 6.41 51.88 6.05L51.88 6.05L51.88 6.05Q51.04 5.16 49.85 5.16ZM62.78 12.04L59.55 12.04L59.55 1.91L61.65 1.91L61.65 1.91Q63.93 1.91 64.96 2.28L64.96 2.28L64.96 2.28Q66.43 2.79 67.26 4.06L67.26 4.06L67.26 4.06Q68.09 5.34 68.09 7.10L68.09 7.10L68.09 7.10Q68.09 8.62 67.43 9.78L67.43 9.78L67.43 9.78Q66.77 10.94 65.72 11.49L65.72 11.49L65.72 11.49Q64.67 12.04 62.78 12.04L62.78 12.04ZM60.53 2.89L60.53 11.08L61.69 11.08L61.69 11.08Q63.79 11.08 64.61 10.82L64.61 10.82L64.61 10.82Q65.75 10.45 66.41 9.48L66.41 9.48L66.41 9.48Q67.07 8.52 67.07 7.12L67.07 7.12L67.07 7.12Q67.07 5.65 66.36 4.61L66.36 4.61L66.36 4.61Q65.65 3.57 64.38 3.19L64.38 3.19L64.38 3.19Q63.42 2.89 61.24 2.89L61.24 2.89L60.53 2.89ZM73.43 4.22L73.43 4.22L73.43 4.22Q75.16 4.22 76.30 5.47L76.30 5.47L76.30 5.47Q77.33 6.62 77.33 8.18L77.33 8.18L77.33 8.18Q77.33 9.75 76.24 10.92L76.24 10.92L76.24 10.92Q75.15 12.09 73.43 12.09L73.43 12.09L73.43 12.09Q71.71 12.09 70.62 10.92L70.62 10.92L70.62 10.92Q69.53 9.75 69.53 8.18L69.53 8.18L69.53 8.18Q69.53 6.62 70.56 5.48L70.56 5.48L70.56 5.48Q71.70 4.22 73.43 4.22ZM73.43 5.16L73.43 5.16L73.43 5.16Q72.24 5.16 71.37 6.05L71.37 6.05L71.37 6.05Q70.51 6.94 70.51 8.20L70.51 8.20L70.51 8.20Q70.51 9.01 70.91 9.72L70.91 9.72L70.91 9.72Q71.30 10.42 71.97 10.80L71.97 10.80L71.97 10.80Q72.64 11.18 73.43 11.18L73.43 11.18L73.43 11.18Q74.24 11.18 74.90 10.80L74.90 10.80L74.90 10.80Q75.57 10.42 75.96 9.72L75.96 9.72L75.96 9.72Q76.35 9.01 76.35 8.20L76.35 8.20L76.35 8.20Q76.35 6.94 75.49 6.05L75.49 6.05L75.49 6.05Q74.63 5.16 73.43 5.16ZM86.39 5.97L86.39 5.97L85.62 6.45L85.62 6.45Q84.63 5.12 82.91 5.12L82.91 5.12L82.91 5.12Q81.54 5.12 80.63 6.00L80.63 6.00L80.63 6.00Q79.73 6.88 79.73 8.15L79.73 8.15L79.73 8.15Q79.73 8.97 80.14 9.70L80.14 9.70L80.14 9.70Q80.56 10.42 81.29 10.82L81.29 10.82L81.29 10.82Q82.01 11.22 82.91 11.22L82.91 11.22L82.91 11.22Q84.57 11.22 85.62 9.91L85.62 9.91L86.39 10.40L86.39 10.40Q85.85 11.21 84.94 11.65L84.94 11.65L84.94 11.65Q84.03 12.09 82.87 12.09L82.87 12.09L82.87 12.09Q81.10 12.09 79.93 10.96L79.93 10.96L79.93 10.96Q78.76 9.84 78.76 8.22L78.76 8.22L78.76 8.22Q78.76 7.13 79.31 6.20L79.31 6.20L79.31 6.20Q79.86 5.26 80.81 4.74L80.81 4.74L80.81 4.74Q81.76 4.22 82.95 4.22L82.95 4.22L82.95 4.22Q83.69 4.22 84.39 4.44L84.39 4.44L84.39 4.44Q85.08 4.67 85.57 5.03L85.57 5.03L85.57 5.03Q86.05 5.40 86.39 5.97ZM90.93 11.03L90.93 11.03L90.93 11.03Q90.22 11.41 89.54 11.09L89.54 11.09L89.54 11.09Q88.70 10.45 88.74 9.28L88.74 9.28L88.74 6.10L90.52 6.10L90.52 5.28L88.74 5.28L88.74 1.65L87.77 1.65L87.77 9.44L87.77 9.44Q87.75 10.26 88.14 10.94L88.14 10.94L88.14 10.94Q88.79 12.03 89.89 12.09L89.89 12.09L89.89 12.09Q90.48 12.11 91.23 11.83L91.23 11.83L91.23 11.83Q91.12 11.54 90.93 11.03ZM96.31 4.22L96.31 4.22L96.31 4.22Q98.04 4.22 99.18 5.47L99.18 5.47L99.18 5.47Q100.21 6.62 100.21 8.18L100.21 8.18L100.21 8.18Q100.21 9.75 99.12 10.92L99.12 10.92L99.12 10.92Q98.03 12.09 96.31 12.09L96.31 12.09L96.31 12.09Q94.59 12.09 93.50 10.92L93.50 10.92L93.50 10.92Q92.41 9.75 92.41 8.18L92.41 8.18L92.41 8.18Q92.41 6.62 93.44 5.48L93.44 5.48L93.44 5.48Q94.58 4.22 96.31 4.22ZM96.31 5.16L96.31 5.16L96.31 5.16Q95.12 5.16 94.25 6.05L94.25 6.05L94.25 6.05Q93.39 6.94 93.39 8.20L93.39 8.20L93.39 8.20Q93.39 9.01 93.79 9.72L93.79 9.72L93.79 9.72Q94.18 10.42 94.85 10.80L94.85 10.80L94.85 10.80Q95.52 11.18 96.31 11.18L96.31 11.18L96.31 11.18Q97.12 11.18 97.78 10.80L97.78 10.80L97.78 10.80Q98.45 10.42 98.84 9.72L98.84 9.72L98.84 9.72Q99.23 9.01 99.23 8.20L99.23 8.20L99.23 8.20Q99.23 6.94 98.37 6.05L98.37 6.05L98.37 6.05Q97.51 5.16 96.31 5.16ZM101.62 12.07L101.62 8.65L101.62 7.75L101.62 7.75Q101.73 7.08 101.94 6.65L101.94 6.65L101.94 6.65Q102.42 5.48 103.22 4.93L103.22 4.93L103.22 4.93Q104.03 4.38 104.56 4.38L104.56 4.38L104.56 4.38Q104.96 4.38 105.41 4.64L105.41 4.64L104.91 5.45L104.91 5.45Q104.28 5.22 103.65 5.82L103.65 5.82L103.65 5.82Q103.02 6.43 102.79 7.15L102.79 7.15L102.79 7.15Q102.61 7.79 102.61 9.54L102.61 9.54L102.61 12.07L101.62 12.07Z"></path></g><!----><!----></svg>